<?xml version="1.0" encoding="iso-8859-1"?>
<!-- Generator: Adobe Illustrator 19.0.0, SVG Export Plug-In . SVG Version: 6.00 Build 0)  -->
<svg version="1.1" id="Capa_1" xmlns="http://www.w3.org/2000/svg" xmlns:xlink="http://www.w3.org/1999/xlink" x="0px" y="0px"
	 viewBox="0 0 511.999 511.999" style="enable-background:new 0 0 511.999 511.999;" xml:space="preserve">
<path style="fill:#E5E5E5;" d="M458.76,504.499c-18.718-35.007-63.924-59.693-116.725-59.693
	c-52.803,0-98.009,24.687-116.728,59.693H458.76z"/>
<g>
	<polygon style="fill:#C73627;" points="214.706,504.499 289.707,504.499 289.707,427.999 214.706,466.999 	"/>
	<polygon style="fill:#C73627;" points="214.706,349.999 214.706,413.999 289.707,374.999 289.707,310.999 	"/>
</g>
<polygon style="fill:#E5E5E5;" points="214.706,469.251 289.707,430.509 289.707,372.217 214.706,411.243 "/>
<g>
	<rect x="214.71" y="79.189" style="fill:#C73627;" width="75" height="38.1"/>
	<polygon style="fill:#C73627;" points="214.706,229.312 214.706,297.991 289.707,258.966 289.707,229.312 	"/>
</g>
<polygon style="fill:#E5E5E5;" points="214.706,353.532 289.707,314.789 289.707,256.499 214.706,295.524 "/>
<g style="opacity:0.1;">
	<rect x="214.71" y="229.309" style="fill:#1E004C;" width="21.876" height="275.19"/>
	<rect x="214.71" y="79.189" style="fill:#1E004C;" width="21.876" height="38.1"/>
</g>
<path style="fill:#E5E5E5;" d="M202.639,55.999v20.64c0,2.791,2.285,5.075,5.078,5.075h88.979c2.793,0,5.078-2.284,5.078-5.075
	v-20.64H202.639z"/>
<path style="opacity:0.1;fill:#1E004C;enable-background:new    ;" d="M230.338,76.639v-20.64h-27.699v20.64
	c0,2.791,2.285,5.075,5.078,5.075h27.699C232.623,81.714,230.338,79.43,230.338,76.639z"/>
<path style="fill:#FFBB4A;" d="M59.547,234.312c-2.793,0-5.078-2.284-5.078-5.075V117.365c0-2.792,2.285-5.076,5.078-5.076h377.915
	c2.793,0,6.694,1.614,8.671,3.587l53.94,53.841c1.977,1.973,1.977,5.2,0,7.173l-53.94,53.835c-1.977,1.973-5.878,3.587-8.671,3.587
	L59.547,234.312L59.547,234.312z"/>
<g style="opacity:0.1;">
	<path style="fill:#1E004C;" d="M82.065,229.236V117.365c0-2.792,2.285-5.076,5.078-5.076H59.547c-2.793,0-5.078,2.284-5.078,5.076
		v111.871c0,2.791,2.285,5.075,5.078,5.075h27.597C84.351,234.312,82.065,232.027,82.065,229.236z"/>
</g>
<path style="fill:#E5E5E5;" d="M55.729,504.499c1.338-22.504,19.929-40.343,42.678-40.343c13.398,0,25.352,6.191,33.191,15.875
	c10.29-22.912,33.216-38.864,59.869-38.864c35.395,0,64.233,28.125,65.592,63.332L55.729,504.499L55.729,504.499z"/>
<g style="opacity:0.1;">
	<path style="fill:#1E004C;" d="M112.459,466.538c-4.402-1.539-9.128-2.382-14.052-2.382c-22.75,0-41.34,17.839-42.678,40.343h28.12
		C84.897,486.871,96.532,472.109,112.459,466.538z"/>
</g>
<g>
	<path style="fill:#FFFFFF;" d="M150.977,143.202h-29.68c-6.936,0-12.578,5.642-12.578,12.576v40.12c0,4.143,3.358,7.5,7.5,7.5
		s7.5-3.357,7.5-7.5v-37.696h24.836v37.696c0,4.143,3.358,7.5,7.5,7.5s7.5-3.357,7.5-7.5v-40.12
		C163.555,148.844,157.913,143.202,150.977,143.202z"/>
	<path style="fill:#FFFFFF;" d="M271.808,143.202H242.13c-6.936,0-12.578,5.642-12.578,12.576v40.12c0,4.143,3.358,7.5,7.5,7.5
		s7.5-3.357,7.5-7.5v-15.096h9.031l17.677,20.055c1.482,1.683,3.55,2.541,5.629,2.541c1.762,0,3.531-0.617,4.956-1.874
		c3.107-2.738,3.406-7.478,0.667-10.585l-8.935-10.137h3.309c4.143,0,7.5-3.357,7.5-7.5c0-0.071-0.009-0.14-0.011-0.21
		c0.002-0.071,0.011-0.14,0.011-0.211v-17.104C284.386,148.844,278.743,143.202,271.808,143.202z M244.552,158.202h24.834v7.601
		h-24.834L244.552,158.202L244.552,158.202z"/>
	<path style="fill:#FFFFFF;" d="M397.01,143.202c-4.143,0-7.5,3.357-7.5,7.5v15.101h-24.834v-15.101c0-4.143-3.357-7.5-7.5-7.5
		s-7.5,3.357-7.5,7.5v45.196c0,4.143,3.357,7.5,7.5,7.5s7.5-3.357,7.5-7.5v-15.096h24.834v15.096c0,4.143,3.357,7.5,7.5,7.5
		s7.5-3.357,7.5-7.5v-45.196C404.51,146.56,401.152,143.202,397.01,143.202z"/>
	<path style="fill:#FFFFFF;" d="M211.572,143.202h-29.679c-6.936,0-12.578,5.642-12.578,12.576v35.045
		c0,6.934,5.642,12.575,12.578,12.575h29.679c6.936,0,12.578-5.642,12.578-12.575v-35.045
		C224.149,148.844,218.507,143.202,211.572,143.202z M209.149,188.398h-24.834v-30.196h24.834V188.398z"/>
	<path style="fill:#FFFFFF;" d="M196.73,180.809c1.97,0,3.91-0.81,5.31-2.2c1.39-1.399,2.19-3.329,2.19-5.31
		c0-1.97-0.8-3.9-2.19-5.3c-1.4-1.391-3.33-2.2-5.31-2.2c-1.97,0-3.9,0.81-5.3,2.2c-1.4,1.399-2.2,3.33-2.2,5.3
		c0,1.98,0.8,3.91,2.2,5.31C192.83,179.999,194.76,180.809,196.73,180.809z"/>
	<path style="fill:#FFFFFF;" d="M336.486,143.202h-39.835c-4.143,0-7.5,3.357-7.5,7.5s3.357,7.5,7.5,7.5h12.418v37.696
		c0,4.143,3.357,7.5,7.5,7.5s7.5-3.357,7.5-7.5v-37.696h12.417c4.143,0,7.5-3.357,7.5-7.5
		C343.986,146.56,340.629,143.202,336.486,143.202z"/>
</g>
<ellipse style="fill:#B1E8FF;" cx="63.52" cy="314.249" rx="16.962" ry="16.954"/>
<g>
	<ellipse style="fill:#E5E5E5;" cx="132.63" cy="373.159" rx="16.962" ry="16.953"/>
	<ellipse style="fill:#E5E5E5;" cx="408.06" cy="348.679" rx="16.962" ry="16.953"/>
</g>
<g>
	<ellipse style="fill:#B1E8FF;" cx="116.68" cy="61.649" rx="16.962" ry="16.953"/>
	<ellipse style="fill:#B1E8FF;" cx="389.02" cy="16.953" rx="16.961" ry="16.953"/>
</g>
<g>
	<path style="fill:#CB7C52;" d="M77.827,145.044c4.142,0,7.5-3.357,7.5-7.5s-3.358-7.5-7.5-7.5H54.469v15H77.827z"/>
	<path style="fill:#CB7C52;" d="M77.827,168.729c4.142,0,7.5-3.357,7.5-7.5s-3.358-7.5-7.5-7.5H54.469v15H77.827z"/>
	<path style="fill:#CB7C52;" d="M77.827,192.414c4.142,0,7.5-3.357,7.5-7.5c0-4.142-3.358-7.5-7.5-7.5H54.469v15H77.827z"/>
	<path style="fill:#CB7C52;" d="M77.827,216.101c4.142,0,7.5-3.357,7.5-7.5s-3.358-7.5-7.5-7.5H54.469v15H77.827z"/>
</g>
<path style="fill:#289E48;" d="M308.883,52.992c0,2.791-2.285,5.075-5.078,5.075H200.608c-2.793,0-5.078-2.284-5.078-5.075V26.95
	c0-2.791,2.285-5.075,5.078-5.075h103.196c2.793,0,5.078,2.284,5.078,5.075L308.883,52.992L308.883,52.992z"/>
<g style="opacity:0.1;">
	<path style="fill:#1E004C;" d="M223.23,52.992V26.95c0-2.791,2.285-5.075,5.078-5.075h-27.699c-2.793,0-5.078,2.284-5.078,5.075
		v26.042c0,2.791,2.285,5.075,5.078,5.075h27.699C225.514,58.067,223.23,55.783,223.23,52.992z"/>
</g>
<path style="fill:#B1E8FF;" d="M486.469,511.999H17.944c-4.142,0-7.5-3.357-7.5-7.5s3.358-7.5,7.5-7.5h468.525
	c4.142,0,7.5,3.357,7.5,7.5S490.611,511.999,486.469,511.999z"/>
<g>
</g>
<g>
</g>
<g>
</g>
<g>
</g>
<g>
</g>
<g>
</g>
<g>
</g>
<g>
</g>
<g>
</g>
<g>
</g>
<g>
</g>
<g>
</g>
<g>
</g>
<g>
</g>
<g>
</g>
</svg>
